<svg xmlns="http://www.w3.org/2000/svg" viewBox="0 0 256 256" role="img" aria-labelledby="title desc">
  <title id="title">PDF Editor App Icon</title>
  <desc id="desc">Folded document icon with editing marks.</desc>
  <defs>
    <linearGradient id="bg" x1="0" y1="0" x2="1" y2="1">
      <stop offset="0%" stop-color="#0f172a" />
      <stop offset="100%" stop-color="#2563eb" />
    </linearGradient>
    <linearGradient id="sheet" x1="0" y1="0" x2="1" y2="1">
      <stop offset="0%" stop-color="#ffffff" />
      <stop offset="100%" stop-color="#dbeafe" />
    </linearGradient>
  </defs>
  <rect width="256" height="256" rx="56" fill="url(#bg)" />
  <path d="M76 44h72l44 44v124c0 11-9 20-20 20H76c-11 0-20-9-20-20V64c0-11 9-20 20-20Z" fill="url(#sheet)" />
  <path d="M148 44v36c0 11 9 20 20 20h24" fill="#93c5fd" />
  <path d="M92 112h72" stroke="#1d4ed8" stroke-width="12" stroke-linecap="round" />
  <path d="M92 148h52" stroke="#60a5fa" stroke-width="12" stroke-linecap="round" />
  <path d="m154 174 18-6 26-26c5-5 5-13 0-18s-13-5-18 0l-26 26-6 18Z" fill="#f59e0b" />
  <path d="m150 178 8-24 16 16-24 8Z" fill="#78350f" fill-opacity="0.22" />
</svg>